<svg width="21" height="20" viewBox="0 0 21 20" fill="none" xmlns="http://www.w3.org/2000/svg">
<path fill-rule="evenodd" clip-rule="evenodd" d="M2.95472 0.634388C3.17228 0.417137 3.43353 0.248608 3.72114 0.139967C4.00876 0.0313258 4.31617 -0.0149454 4.62302 0.0042194C4.92987 0.0233842 5.22914 0.107547 5.50101 0.251132C5.77287 0.394716 6.01112 0.594442 6.19996 0.837076L8.43184 3.70455C8.84091 4.23054 8.98515 4.9157 8.82351 5.56231L8.14337 8.28554C8.10845 8.4266 8.11048 8.57428 8.14924 8.71433C8.18801 8.85438 8.26221 8.98207 8.3647 9.0851L11.4197 12.1403C11.5228 12.243 11.6507 12.3174 11.791 12.3561C11.9313 12.3949 12.0792 12.3968 12.2204 12.3617L14.9422 11.6815C15.2613 11.6022 15.5942 11.5962 15.916 11.664C16.2377 11.7319 16.5399 11.8718 16.7998 12.0732L19.6671 14.304C20.6978 15.106 20.7923 16.6293 19.8698 17.5507L18.5841 18.8365C17.664 19.7567 16.2888 20.1608 15.0069 19.7094C11.7252 18.5562 8.74584 16.6775 6.29073 14.2132C3.8268 11.7583 1.94826 8.77916 0.794958 5.49765C0.344852 4.21686 0.748953 2.84033 1.66906 1.92015L2.95472 0.634388Z" fill="white"/>
</svg>
