<svg width="21" height="20" viewBox="0 0 21 20" fill="none" xmlns="http://www.w3.org/2000/svg">
<path d="M10.7531 0C8.05359 0 7.71414 0.0124343 6.65349 0.0596844C5.59285 0.109421 4.87042 0.27604 4.23752 0.522239C3.57334 0.771329 2.97189 1.1631 2.47558 1.66992C1.96876 2.16622 1.57699 2.76767 1.3279 3.43185C1.0817 4.06351 0.913842 4.78719 0.865348 5.8441C0.818098 6.90723 0.805664 7.24544 0.805664 9.94865C0.805664 12.6494 0.818098 12.9876 0.865348 14.0482C0.915086 15.1076 1.0817 15.8301 1.3279 16.463C1.58281 17.117 1.92226 17.6716 2.47558 18.2249C3.02767 18.7782 3.58223 19.1189 4.23628 19.3726C4.87042 19.6188 5.59161 19.7866 6.65101 19.8351C7.71289 19.8824 8.05111 19.8948 10.7531 19.8948C13.455 19.8948 13.792 19.8824 14.8539 19.8351C15.912 19.7854 16.637 19.6188 17.2699 19.3726C17.9336 19.1233 18.5346 18.7316 19.0306 18.2249C19.5839 17.6716 19.9233 17.117 20.1782 16.463C20.4232 15.8301 20.5911 15.1076 20.6408 14.0482C20.688 12.9876 20.7005 12.6494 20.7005 9.9474C20.7005 7.24544 20.688 6.90723 20.6408 5.84534C20.5911 4.78719 20.4232 4.06351 20.1782 3.43185C19.9291 2.76767 19.5374 2.16622 19.0306 1.66992C18.5343 1.1631 17.9328 0.771329 17.2686 0.522239C16.6345 0.27604 15.9108 0.108178 14.8526 0.0596844C13.7908 0.0124343 13.4538 0 10.7506 0H10.7531ZM9.86153 1.79302H10.7543C13.4103 1.79302 13.7249 1.80172 14.7731 1.85022C15.7429 1.89374 16.2701 2.05663 16.6208 2.19216C17.0846 2.37246 17.4166 2.58881 17.7647 2.93697C18.1129 3.28513 18.328 3.61588 18.5083 4.08092C18.6451 4.43033 18.8067 4.95754 18.8503 5.92741C18.8988 6.97562 18.9087 7.2902 18.9087 9.94492C18.9087 12.5996 18.8988 12.9155 18.8503 13.9637C18.8067 14.9335 18.6438 15.4595 18.5083 15.8102C18.3477 16.2415 18.0933 16.6318 17.7635 16.9529C17.4153 17.301 17.0846 17.5161 16.6196 17.6964C16.2714 17.8332 15.7442 17.9949 14.7731 18.0396C13.7249 18.0869 13.4103 18.0981 10.7543 18.0981C8.09836 18.0981 7.78253 18.0869 6.73432 18.0396C5.76445 17.9949 5.23848 17.8332 4.88783 17.6964C4.45615 17.5364 4.06543 17.2824 3.74388 16.9529C3.41347 16.6316 3.15863 16.2408 2.99782 15.8089C2.86229 15.4595 2.6994 14.9323 2.65588 13.9624C2.60863 12.9142 2.59868 12.5996 2.59868 9.94243C2.59868 7.28523 2.60863 6.97313 2.65588 5.92492C2.70064 4.95505 2.86229 4.42784 2.99907 4.07719C3.17936 3.61339 3.39572 3.2814 3.74388 2.93324C4.09204 2.58508 4.42279 2.36997 4.88783 2.18967C5.23848 2.0529 5.76445 1.89125 6.73432 1.84649C7.65197 1.80421 8.00759 1.79178 9.86153 1.79053V1.79302ZM16.0637 3.44429C15.907 3.44429 15.7518 3.47516 15.6069 3.53515C15.4621 3.59514 15.3305 3.68307 15.2197 3.79391C15.1088 3.90476 15.0209 4.03635 14.9609 4.18117C14.9009 4.326 14.8701 4.48122 14.8701 4.63798C14.8701 4.79473 14.9009 4.94996 14.9609 5.09478C15.0209 5.23961 15.1088 5.3712 15.2197 5.48204C15.3305 5.59289 15.4621 5.68081 15.6069 5.7408C15.7518 5.80079 15.907 5.83167 16.0637 5.83167C16.3803 5.83167 16.6839 5.7059 16.9078 5.48204C17.1317 5.25818 17.2574 4.95456 17.2574 4.63798C17.2574 4.32139 17.1317 4.01777 16.9078 3.79391C16.6839 3.57005 16.3803 3.44429 16.0637 3.44429ZM10.7543 4.83941C10.0767 4.82884 9.40382 4.95317 8.77475 5.20515C8.14568 5.45714 7.57303 5.83175 7.09012 6.30718C6.60722 6.78261 6.22372 7.34935 5.96195 7.97441C5.70018 8.59947 5.56537 9.27036 5.56537 9.94803C5.56537 10.6257 5.70018 11.2966 5.96195 11.9216C6.22372 12.5467 6.60722 13.1134 7.09012 13.5889C7.57303 14.0643 8.14568 14.4389 8.77475 14.6909C9.40382 14.9429 10.0767 15.0672 10.7543 15.0566C12.0954 15.0357 13.3745 14.4883 14.3155 13.5325C15.2564 12.5767 15.7838 11.2893 15.7838 9.94803C15.7838 8.60678 15.2564 7.31932 14.3155 6.36354C13.3745 5.40777 12.0954 4.86034 10.7543 4.83941ZM10.7543 6.63119C11.1898 6.63119 11.621 6.71697 12.0234 6.88362C12.4257 7.05028 12.7913 7.29455 13.0992 7.60249C13.4072 7.91043 13.6514 8.276 13.8181 8.67834C13.9848 9.08069 14.0705 9.51191 14.0705 9.9474C14.0705 10.3829 13.9848 10.8141 13.8181 11.2165C13.6514 11.6188 13.4072 11.9844 13.0992 12.2923C12.7913 12.6003 12.4257 12.8445 12.0234 13.0112C11.621 13.1778 11.1898 13.2636 10.7543 13.2636C9.8748 13.2636 9.0313 12.9142 8.40939 12.2923C7.78748 11.6704 7.4381 10.8269 7.4381 9.9474C7.4381 9.06789 7.78748 8.2244 8.40939 7.60249C9.0313 6.98058 9.8748 6.63119 10.7543 6.63119Z" fill="white"/>
</svg>
