<svg width="20" height="20" viewBox="0 0 20 20" fill="none" xmlns="http://www.w3.org/2000/svg">
<g clip-path="url(#clip0_1_37)">
<path d="M0 1.42497C0 0.637877 0.654042 0 1.46102 0H18.4338C19.2408 0 19.8948 0.637877 19.8948 1.42497V18.4698C19.8948 19.2569 19.2408 19.8948 18.4338 19.8948H1.46102C0.654042 19.8948 0 19.2569 0 18.4698V1.42497ZM6.14625 16.6544V7.67069H3.16079V16.6544H6.14625ZM4.65414 6.44343C5.69489 6.44343 6.34271 5.75457 6.34271 4.89164C6.32406 4.01005 5.69613 3.33984 4.67404 3.33984C3.65194 3.33984 2.98422 4.01129 2.98422 4.89164C2.98422 5.75457 3.63205 6.44343 4.63425 6.44343H4.65414ZM10.7569 16.6544V11.6372C10.7569 11.3686 10.7768 11.1001 10.8563 10.9086C11.0715 10.3727 11.5626 9.81684 12.3882 9.81684C13.4688 9.81684 13.9003 10.64 13.9003 11.8486V16.6544H16.8857V11.5017C16.8857 8.74128 15.4135 7.45807 13.4489 7.45807C11.8648 7.45807 11.1548 8.32846 10.7569 8.94147V8.97256H10.737L10.7569 8.94147V7.67069H7.77265C7.80996 8.51373 7.77265 16.6544 7.77265 16.6544H10.7569Z" fill="white"/>
</g>
<defs>
<clipPath id="clip0_1_37">
<rect width="19.8948" height="19.8948" fill="white"/>
</clipPath>
</defs>
</svg>
