<svg width="100" height="100" viewBox="0 0 100 100" fill="none" xmlns="http://www.w3.org/2000/svg">
<path fill-rule="evenodd" clip-rule="evenodd" d="M50 0C41.7515 0.0258657 33.7843 3.00084 27.5375 8.3875C22.75 12.5125 19.2812 17.8875 18.3875 23.2812C7.9125 25.5938 0 34.7188 0 45.7375C0 58.5375 10.675 68.75 23.6312 68.75H46.875V35.6687L33.4625 49.0875C32.8757 49.6743 32.0798 50.0039 31.25 50.0039C30.4202 50.0039 29.6243 49.6743 29.0375 49.0875C28.4507 48.5007 28.1211 47.7048 28.1211 46.875C28.1211 46.0452 28.4507 45.2493 29.0375 44.6625L47.7875 25.9125C48.0778 25.6215 48.4226 25.3906 48.8023 25.233C49.1819 25.0755 49.589 24.9944 50 24.9944C50.411 24.9944 50.8181 25.0755 51.1977 25.233C51.5774 25.3906 51.9222 25.6215 52.2125 25.9125L70.9625 44.6625C71.5493 45.2493 71.8789 46.0452 71.8789 46.875C71.8789 47.7048 71.5493 48.5007 70.9625 49.0875C70.3757 49.6743 69.5798 50.0039 68.75 50.0039C67.9202 50.0039 67.1243 49.6743 66.5375 49.0875L53.125 35.6687V68.75H79.3C90.6375 68.75 100 59.8125 100 48.5812C100 38.3562 92.2375 30.025 82.2875 28.6187C80.7688 12.4938 66.8125 0 50 0ZM46.875 90.625V68.75H53.125V90.625C53.125 91.4538 52.7958 92.2487 52.2097 92.8347C51.6237 93.4208 50.8288 93.75 50 93.75C49.1712 93.75 48.3763 93.4208 47.7903 92.8347C47.2042 92.2487 46.875 91.4538 46.875 90.625Z" fill="white"/>
</svg>
