<svg width="100" height="100" viewBox="0 0 100 100" fill="none" xmlns="http://www.w3.org/2000/svg">
<g clip-path="url(#clip0_1_1946)">
<path d="M58.0813 0H25C21.6848 0 18.5054 1.31696 16.1612 3.66117C13.817 6.00537 12.5 9.18479 12.5 12.5V87.5C12.5 90.8152 13.817 93.9946 16.1612 96.3388C18.5054 98.683 21.6848 100 25 100H75C78.3152 100 81.4946 98.683 83.8388 96.3388C86.183 93.9946 87.5 90.8152 87.5 87.5V29.4187C87.4996 27.7613 86.8409 26.1718 85.6687 25L62.5 1.83125C61.3282 0.659067 59.7387 0.000353984 58.0813 0ZM59.375 21.875V9.375L78.125 28.125H65.625C63.9674 28.125 62.3777 27.4665 61.2056 26.2944C60.0335 25.1223 59.375 23.5326 59.375 21.875ZM67.8375 49.0875L49.0875 67.8375C48.7972 68.1285 48.4524 68.3594 48.0727 68.517C47.6931 68.6745 47.286 68.7556 46.875 68.7556C46.464 68.7556 46.0569 68.6745 45.6773 68.517C45.2976 68.3594 44.9528 68.1285 44.6625 67.8375L35.2875 58.4625C34.997 58.172 34.7665 57.827 34.6092 57.4474C34.452 57.0678 34.3711 56.6609 34.3711 56.25C34.3711 55.8391 34.452 55.4322 34.6092 55.0526C34.7665 54.673 34.997 54.328 35.2875 54.0375C35.8743 53.4507 36.6702 53.1211 37.5 53.1211C37.9109 53.1211 38.3178 53.202 38.6974 53.3592C39.077 53.5165 39.422 53.7469 39.7125 54.0375L46.875 61.2063L63.4125 44.6625C63.9993 44.0757 64.7952 43.7461 65.625 43.7461C66.4548 43.7461 67.2507 44.0757 67.8375 44.6625C68.4243 45.2493 68.7539 46.0452 68.7539 46.875C68.7539 47.7048 68.4243 48.5007 67.8375 49.0875Z" fill="white"/>
</g>
<defs>
<clipPath id="clip0_1_1946">
<rect width="100" height="100" fill="white"/>
</clipPath>
</defs>
</svg>
