<svg width="100" height="101" viewBox="0 0 100 101" fill="none" xmlns="http://www.w3.org/2000/svg">
<g clip-path="url(#clip0_1_594)">
<path d="M51.0468 13.5413C50.636 13.3501 50.1882 13.251 49.735 13.251C49.2818 13.251 48.8341 13.3501 48.4232 13.5413L1.79476 35.3013C1.24568 35.5576 0.783469 35.9687 0.464983 36.4842C0.146497 36.9998 -0.0143822 37.5971 0.00213153 38.2028C0.0186453 38.8085 0.211832 39.3962 0.557932 39.8936C0.904033 40.391 1.38796 40.7764 1.95019 41.0024L48.5787 59.6538C49.3209 59.9512 50.1492 59.9512 50.8914 59.6538L87.0378 45.2052V81.6375C85.3889 81.6375 83.8076 82.2925 82.6416 83.4585C81.4757 84.6244 80.8207 86.2058 80.8207 87.8547V100.289H99.4721V87.8547C99.4721 86.2058 98.817 84.6244 97.6511 83.4585C96.4852 82.2925 94.9038 81.6375 93.2549 81.6375V42.7121L97.5199 41.0024C98.0821 40.7764 98.566 40.391 98.9121 39.8936C99.2582 39.3962 99.4514 38.8085 99.4679 38.2028C99.4845 37.5971 99.3236 36.9998 99.0051 36.4842C98.6866 35.9687 98.2244 35.5576 97.6753 35.3013L51.0468 13.5413ZM49.735 53.4118L10.9277 37.9L49.735 19.7895L88.5423 37.9L49.735 53.4118Z" fill="white"/>
<path d="M25.9607 56.9671C25.5605 56.8163 25.1334 56.7498 24.7062 56.7716C24.279 56.7935 23.8609 56.9032 23.4781 57.0941C23.0953 57.2849 22.7559 57.5527 22.4814 57.8806C22.2068 58.2086 22.0028 58.5897 21.8823 59.0001L18.7737 69.5693C18.556 70.3112 18.6226 71.1078 18.9606 71.8033C19.2986 72.4988 19.8836 73.0433 20.6016 73.3306L48.5786 84.5215C49.3209 84.8189 50.1492 84.8189 50.8914 84.5215L78.8685 73.3306C79.5864 73.0433 80.1715 72.4988 80.5095 71.8033C80.8474 71.1078 80.9141 70.3112 80.6963 69.5693L77.5878 59.0001C77.4672 58.5897 77.2633 58.2086 76.9887 57.8806C76.7141 57.5527 76.3748 57.2849 75.992 57.0941C75.6092 56.9032 75.1911 56.7935 74.7639 56.7716C74.3367 56.7498 73.9096 56.8163 73.5093 56.9671L49.735 65.8825L25.9607 56.9671ZM25.538 68.6118L26.9057 63.9614L48.6408 72.1121C49.3462 72.3773 50.1239 72.3773 50.8292 72.1121L72.5643 63.9614L73.9321 68.6118L49.735 78.2795L25.538 68.6118Z" fill="white"/>
</g>
<defs>
<clipPath id="clip0_1_594">
<rect width="99.4741" height="99.4741" fill="white" transform="translate(-0.00195312 0.814453)"/>
</clipPath>
</defs>
</svg>
