<svg width="20" height="21" viewBox="0 0 20 21" fill="none" xmlns="http://www.w3.org/2000/svg">
<g clip-path="url(#clip0_27_21)">
<path d="M10.0157 0.52002C7.33041 0.52002 6.99274 0.532388 5.93768 0.57939C4.88262 0.628865 4.16399 0.794608 3.53441 1.03951C2.87372 1.28729 2.27544 1.677 1.78174 2.18116C1.27759 2.67485 0.887877 3.27314 0.640098 3.93382C0.395194 4.56216 0.228215 5.28203 0.179976 6.33338C0.132974 7.39092 0.120605 7.72735 0.120605 10.4163C0.120605 13.1029 0.132974 13.4393 0.179976 14.4944C0.229451 15.5482 0.395194 16.2668 0.640098 16.8964C0.893659 17.547 1.23133 18.0986 1.78174 18.6491C2.33092 19.1995 2.88257 19.5384 3.53317 19.7907C4.16399 20.0356 4.88138 20.2026 5.93521 20.2508C6.99151 20.2978 7.32794 20.3102 10.0157 20.3102C12.7034 20.3102 13.0386 20.2978 14.0949 20.2508C15.1475 20.2013 15.8686 20.0356 16.4982 19.7907C17.1585 19.5428 17.7563 19.1531 18.2496 18.6491C18.8001 18.0986 19.1377 17.547 19.3913 16.8964C19.635 16.2668 19.8019 15.5482 19.8514 14.4944C19.8984 13.4393 19.9108 13.1029 19.9108 10.4151C19.9108 7.72735 19.8984 7.39092 19.8514 6.33462C19.8019 5.28203 19.635 4.56216 19.3913 3.93382C19.1435 3.27314 18.7538 2.67485 18.2496 2.18116C17.7559 1.677 17.1577 1.28729 16.497 1.03951C15.8662 0.794608 15.1463 0.627629 14.0937 0.57939C13.0374 0.532388 12.7022 0.52002 10.0132 0.52002H10.0157ZM9.12885 2.30361H10.0169C12.6589 2.30361 12.9718 2.31227 14.0145 2.36051C14.9793 2.4038 15.5038 2.56583 15.8526 2.70065C16.3139 2.88 16.6442 3.09522 16.9905 3.44154C17.3368 3.78787 17.5508 4.11688 17.7302 4.57948C17.8662 4.92704 18.027 5.45148 18.0703 6.41625C18.1185 7.45895 18.1284 7.77188 18.1284 10.4126C18.1284 13.0534 18.1185 13.3676 18.0703 14.4102C18.027 15.375 17.865 15.8982 17.7302 16.247C17.5704 16.6761 17.3173 17.0643 16.9893 17.3837C16.6429 17.73 16.3139 17.944 15.8513 18.1234C15.505 18.2594 14.9806 18.4202 14.0145 18.4648C12.9718 18.5118 12.6589 18.5229 10.0169 18.5229C7.37494 18.5229 7.06077 18.5118 6.01808 18.4648C5.05331 18.4202 4.5301 18.2594 4.1813 18.1234C3.7519 17.9641 3.36322 17.7115 3.04337 17.3837C2.71469 17.0641 2.4612 16.6754 2.30124 16.2458C2.16641 15.8982 2.00438 15.3738 1.96109 14.409C1.91409 13.3663 1.90419 13.0534 1.90419 10.4102C1.90419 7.76693 1.91409 7.45648 1.96109 6.41378C2.00562 5.44901 2.16641 4.92457 2.30247 4.57577C2.48182 4.11441 2.69704 3.78416 3.04337 3.43783C3.38969 3.09151 3.71871 2.87752 4.1813 2.69818C4.5301 2.56212 5.05331 2.40132 6.01808 2.3568C6.9309 2.31474 7.28465 2.30237 9.12885 2.30114V2.30361ZM15.2984 3.94619C15.1425 3.94619 14.9881 3.97691 14.844 4.03658C14.7 4.09625 14.5691 4.18372 14.4588 4.29398C14.3485 4.40424 14.2611 4.53514 14.2014 4.6792C14.1417 4.82326 14.111 4.97767 14.111 5.1336C14.111 5.28954 14.1417 5.44394 14.2014 5.58801C14.2611 5.73207 14.3485 5.86297 14.4588 5.97323C14.5691 6.08349 14.7 6.17096 14.844 6.23063C14.9881 6.2903 15.1425 6.32101 15.2984 6.32101C15.6134 6.32101 15.9154 6.19591 16.1381 5.97323C16.3607 5.75055 16.4858 5.44852 16.4858 5.1336C16.4858 4.81868 16.3607 4.51666 16.1381 4.29398C15.9154 4.0713 15.6134 3.94619 15.2984 3.94619ZM10.0169 5.33398C9.34291 5.32346 8.67354 5.44714 8.04778 5.6978C7.42202 5.94846 6.85238 6.3211 6.37201 6.79403C5.89165 7.26696 5.51017 7.83072 5.24977 8.45249C4.98938 9.07426 4.85528 9.74163 4.85528 10.4157C4.85528 11.0898 4.98938 11.7572 5.24977 12.379C5.51017 13.0007 5.89165 13.5645 6.37201 14.0374C6.85238 14.5103 7.42202 14.883 8.04778 15.1337C8.67354 15.3843 9.34291 15.508 10.0169 15.4975C11.351 15.4767 12.6233 14.9321 13.5593 13.9814C14.4954 13.0306 15.02 11.7499 15.02 10.4157C15.02 9.08153 14.4954 7.80084 13.5593 6.85009C12.6233 5.89934 11.351 5.35479 10.0169 5.33398ZM10.0169 7.11633C10.4501 7.11633 10.8791 7.20166 11.2793 7.36744C11.6795 7.53322 12.0432 7.7762 12.3495 8.08252C12.6558 8.38884 12.8988 8.75249 13.0646 9.15272C13.2304 9.55295 13.3157 9.98191 13.3157 10.4151C13.3157 10.8483 13.2304 11.2773 13.0646 11.6775C12.8988 12.0777 12.6558 12.4414 12.3495 12.7477C12.0432 13.054 11.6795 13.297 11.2793 13.4628C10.8791 13.6286 10.4501 13.7139 10.0169 13.7139C9.14204 13.7139 8.30298 13.3663 7.68434 12.7477C7.0657 12.1291 6.71816 11.29 6.71816 10.4151C6.71816 9.54022 7.0657 8.70116 7.68434 8.08252C8.30298 7.46388 9.14204 7.11633 10.0169 7.11633Z" fill="#00064B"/>
</g>
<defs>
<clipPath id="clip0_27_21">
<rect width="19.7902" height="19.7902" fill="white" transform="translate(0.120605 0.52002)"/>
</clipPath>
</defs>
</svg>
