<svg width="21" height="21" viewBox="0 0 21 21" fill="none" xmlns="http://www.w3.org/2000/svg">
<g clip-path="url(#clip0_27_23)">
<path d="M0.508789 1.93749C0.508789 1.15454 1.15939 0.52002 1.96213 0.52002H18.8456C19.6484 0.52002 20.299 1.15454 20.299 1.93749V18.8927C20.299 19.6757 19.6484 20.3102 18.8456 20.3102H1.96213C1.15939 20.3102 0.508789 19.6757 0.508789 18.8927V1.93749ZM6.62272 17.0869V8.15037H3.65295V17.0869H6.62272ZM5.13845 6.92956C6.17373 6.92956 6.81814 6.24433 6.81814 5.38593C6.79959 4.50898 6.17496 3.8423 5.15824 3.8423C4.14152 3.8423 3.47732 4.51021 3.47732 5.38593C3.47732 6.24433 4.12173 6.92956 5.11866 6.92956H5.13845ZM11.2091 17.0869V12.096C11.2091 11.8289 11.2289 11.5617 11.308 11.3712C11.522 10.8381 12.0106 10.2852 12.8319 10.2852C13.9067 10.2852 14.3359 11.1041 14.3359 12.3063V17.0869H17.3057V11.9612C17.3057 9.21533 15.8412 7.93886 13.8869 7.93886C12.3112 7.93886 11.6049 8.80468 11.2091 9.41447V9.44539H11.1893L11.2091 9.41447V8.15037H8.24056C8.27767 8.98898 8.24056 17.0869 8.24056 17.0869H11.2091Z" fill="#00064B"/>
</g>
<defs>
<clipPath id="clip0_27_23">
<rect width="19.7902" height="19.7902" fill="white" transform="translate(0.508789 0.52002)"/>
</clipPath>
</defs>
</svg>
