<svg width="101" height="101" viewBox="0 0 101 101" fill="none" xmlns="http://www.w3.org/2000/svg">
<g clip-path="url(#clip0_1_614)">
<path d="M94.2418 87.876C94.2418 87.876 100.459 87.876 100.459 81.6589C100.459 75.4418 94.2418 56.7904 69.3733 56.7904C44.5048 56.7904 38.2876 75.4418 38.2876 81.6589C38.2876 87.876 44.5048 87.876 44.5048 87.876H94.2418ZM44.6415 81.6589L44.5048 81.634C44.511 79.9927 45.543 75.2304 49.2298 70.9406C52.6616 66.9181 58.6922 63.0075 69.3733 63.0075C80.0481 63.0075 86.0787 66.9243 89.5168 70.9406C93.2035 75.2304 94.2294 79.9989 94.2418 81.634L94.192 81.6465L94.105 81.6589H44.6415ZM69.3733 44.3561C72.671 44.3561 75.8337 43.0461 78.1656 40.7142C80.4975 38.3824 81.8075 35.2197 81.8075 31.9219C81.8075 28.6241 80.4975 25.4614 78.1656 23.1295C75.8337 20.7977 72.671 19.4876 69.3733 19.4876C66.0755 19.4876 62.9128 20.7977 60.5809 23.1295C58.2491 25.4614 56.939 28.6241 56.939 31.9219C56.939 35.2197 58.2491 38.3824 60.5809 40.7142C62.9128 43.0461 66.0755 44.3561 69.3733 44.3561ZM88.0247 31.9219C88.0247 34.3712 87.5422 36.7966 86.6049 39.0595C85.6676 41.3224 84.2937 43.3785 82.5618 45.1104C80.8299 46.8424 78.7737 48.2162 76.5108 49.1535C74.248 50.0908 71.8226 50.5733 69.3733 50.5733C66.9239 50.5733 64.4986 50.0908 62.2357 49.1535C59.9728 48.2162 57.9167 46.8424 56.1847 45.1104C54.4528 43.3785 53.079 41.3224 52.1416 39.0595C51.2043 36.7966 50.7219 34.3712 50.7219 31.9219C50.7219 26.9752 52.6869 22.2312 56.1847 18.7334C59.6826 15.2356 64.4266 13.2705 69.3733 13.2705C74.3199 13.2705 79.064 15.2356 82.5618 18.7334C86.0596 22.2312 88.0247 26.9752 88.0247 31.9219ZM44.1069 58.5312C41.6185 57.7535 39.0555 57.2388 36.4598 56.9956C35.0011 56.8533 33.5361 56.7848 32.0705 56.7904C7.20199 56.7904 0.984863 75.4418 0.984863 81.6589C0.984863 85.8037 3.05724 87.876 7.20199 87.876H33.4134C32.4922 85.935 32.0326 83.8071 32.0705 81.6589C32.0705 75.3796 34.4144 68.9635 38.8472 63.6044C40.3579 61.7765 42.1174 60.0668 44.1069 58.5312ZM31.5731 63.0075C27.8959 68.5373 25.9084 75.0183 25.8534 81.6589H7.20199C7.20199 80.0425 8.2216 75.2553 11.927 70.9406C15.3153 66.9865 21.203 63.1319 31.5731 63.0138V63.0075ZM10.3106 35.0305C10.3106 30.0838 12.2756 25.3398 15.7734 21.8419C19.2712 18.3441 24.0153 16.3791 28.9619 16.3791C33.9086 16.3791 38.6526 18.3441 42.1505 21.8419C45.6483 25.3398 47.6133 30.0838 47.6133 35.0305C47.6133 39.9771 45.6483 44.7212 42.1505 48.219C38.6526 51.7168 33.9086 53.6818 28.9619 53.6818C24.0153 53.6818 19.2712 51.7168 15.7734 48.219C12.2756 44.7212 10.3106 39.9771 10.3106 35.0305ZM28.9619 22.5962C25.6642 22.5962 22.5015 23.9062 20.1696 26.2381C17.8377 28.57 16.5277 31.7327 16.5277 35.0305C16.5277 38.3282 17.8377 41.4909 20.1696 43.8228C22.5015 46.1547 25.6642 47.4647 28.9619 47.4647C32.2597 47.4647 35.4224 46.1547 37.7543 43.8228C40.0862 41.4909 41.3962 38.3282 41.3962 35.0305C41.3962 31.7327 40.0862 28.57 37.7543 26.2381C35.4224 23.9062 32.2597 22.5962 28.9619 22.5962Z" fill="white"/>
</g>
<defs>
<clipPath id="clip0_1_614">
<rect width="99.4741" height="99.4741" fill="white" transform="translate(0.984863 0.835938)"/>
</clipPath>
</defs>
</svg>
