<svg width="57" height="57" viewBox="0 0 57 57" fill="none" xmlns="http://www.w3.org/2000/svg">
<g clip-path="url(#clip0_1_1952)">
<path d="M39.1875 21.375C39.1875 24.2095 38.0615 26.9279 36.0572 28.9322C34.0529 30.9365 31.3345 32.0625 28.5 32.0625C25.6655 32.0625 22.9471 30.9365 20.9428 28.9322C18.9385 26.9279 17.8125 24.2095 17.8125 21.375C17.8125 18.5405 18.9385 15.8221 20.9428 13.8178C22.9471 11.8135 25.6655 10.6875 28.5 10.6875C31.3345 10.6875 34.0529 11.8135 36.0572 13.8178C38.0615 15.8221 39.1875 18.5405 39.1875 21.375Z" fill="#00064B"/>
<path fill-rule="evenodd" clip-rule="evenodd" d="M0 28.5C0 20.9413 3.00267 13.6922 8.34746 8.34746C13.6922 3.00267 20.9413 0 28.5 0C36.0587 0 43.3078 3.00267 48.6525 8.34746C53.9973 13.6922 57 20.9413 57 28.5C57 36.0587 53.9973 43.3078 48.6525 48.6525C43.3078 53.9973 36.0587 57 28.5 57C20.9413 57 13.6922 53.9973 8.34746 48.6525C3.00267 43.3078 0 36.0587 0 28.5ZM28.5 3.5625C23.8038 3.56275 19.2032 4.88904 15.2276 7.38872C11.2519 9.88841 8.06294 13.4599 6.02762 17.6921C3.9923 21.9243 3.19338 26.6451 3.72281 31.3114C4.25224 35.9776 6.0885 40.3995 9.02025 44.0681C11.5496 39.9926 17.1178 35.625 28.5 35.625C39.8822 35.625 45.4468 39.9891 47.9798 44.0681C50.9115 40.3995 52.7478 35.9776 53.2772 31.3114C53.8066 26.6451 53.0077 21.9243 50.9724 17.6921C48.9371 13.4599 45.7481 9.88841 41.7724 7.38872C37.7968 4.88904 33.1962 3.56275 28.5 3.5625Z" fill="#00064B"/>
</g>
<defs>
<clipPath id="clip0_1_1952">
<rect width="57" height="57" fill="white"/>
</clipPath>
</defs>
</svg>
