<svg width="88" height="98" viewBox="0 0 88 98" fill="none" xmlns="http://www.w3.org/2000/svg">
<path d="M43.6869 0.835938C44.3342 0.83553 44.9655 1.03719 45.4926 1.41279C46.0198 1.78839 46.4166 2.31918 46.6276 2.93111L50.19 13.2702H80.9897C82.6385 13.2702 84.2199 13.9252 85.3858 15.0911C86.5518 16.2571 87.2068 17.8384 87.2068 19.4873V63.0072C87.2068 64.6561 86.5518 66.2375 85.3858 67.4034C84.2199 68.5693 82.6385 69.2243 80.9897 69.2243H69.488L77.7132 93.0795C77.982 93.8594 77.9299 94.7141 77.5685 95.4557C77.2071 96.1972 76.5658 96.7648 75.7859 97.0336C75.006 97.3023 74.1513 97.2503 73.4097 96.8888C72.6682 96.5274 72.1006 95.8862 71.8318 95.1063L62.9103 69.2243H46.7955V87.8757C46.7955 88.7002 46.4679 89.4909 45.885 90.0738C45.302 90.6568 44.5113 90.9843 43.6869 90.9843C42.8624 90.9843 42.0718 90.6568 41.4888 90.0738C40.9058 89.4909 40.5783 88.7002 40.5783 87.8757V69.2243H24.4635L15.542 95.1063C15.2732 95.8862 14.7056 96.5274 13.9641 96.8888C13.2225 97.2503 12.3678 97.3023 11.5879 97.0336C10.8079 96.7648 10.1667 96.1972 9.80528 95.4557C9.44384 94.7141 9.39178 93.8594 9.66055 93.0795L17.8858 69.2243H6.38412C4.73524 69.2243 3.15388 68.5693 1.98795 67.4034C0.822009 66.2375 0.166992 64.6561 0.166992 63.0072V19.4873C0.166992 17.8384 0.822009 16.2571 1.98795 15.0911C3.15388 13.9252 4.73524 13.2702 6.38412 13.2702H37.1838L40.7462 2.93111C40.9572 2.31918 41.354 1.78839 41.8812 1.41279C42.4083 1.03719 43.0396 0.83553 43.6869 0.835938ZM6.38412 19.4873V63.0072H80.9897V19.4873H6.38412Z" fill="white"/>
</svg>
