<svg width="21" height="21" viewBox="0 0 21 21" fill="none" xmlns="http://www.w3.org/2000/svg">
<path fill-rule="evenodd" clip-rule="evenodd" d="M3.06446 1.15107C3.28088 0.934963 3.54075 0.76732 3.82685 0.65925C4.11295 0.551181 4.41875 0.505153 4.72399 0.524217C5.02922 0.543281 5.32692 0.627001 5.59735 0.76983C5.86779 0.912659 6.10478 1.11134 6.29263 1.35269L8.51277 4.20508C8.9197 4.72831 9.06317 5.40986 8.90238 6.05307L8.22582 8.76198C8.19109 8.9023 8.1931 9.0492 8.23166 9.18852C8.27023 9.32783 8.34404 9.45485 8.44598 9.55733L11.4849 12.5965C11.5875 12.6987 11.7147 12.7726 11.8543 12.8112C11.9938 12.8497 12.141 12.8516 12.2814 12.8167L14.9889 12.1401C15.3063 12.0612 15.6375 12.0552 15.9576 12.1227C16.2776 12.1902 16.5782 12.3294 16.8368 12.5297L19.6889 14.7488C20.7143 15.5466 20.8083 17.0619 19.8905 17.9784L18.6116 19.2574C17.6964 20.1728 16.3284 20.5748 15.0532 20.1258C11.7888 18.9786 8.82513 17.1098 6.38292 14.6585C3.93195 12.2164 2.0633 9.25301 0.916058 5.98875C0.468319 4.7147 0.870294 3.34541 1.78556 2.43007L3.06446 1.15107Z" fill="#00064B"/>
</svg>
